<?xml version="1.0" standalone="no"?>
<!DOCTYPE svg PUBLIC "-//W3C//DTD SVG 20010904//EN"
 "http://www.w3.org/TR/2001/REC-SVG-20010904/DTD/svg10.dtd">
<svg version="1.0" xmlns="http://www.w3.org/2000/svg"
 width="360.000000pt" height="480.000000pt" viewBox="0 0 360.000000 480.000000"
 preserveAspectRatio="xMidYMid meet">

<g transform="translate(0.000000,480.000000) scale(0.100000,-0.100000)"
fill="#000000" stroke="none">
<path d="M0 2400 l0 -2400 1800 0 1800 0 0 2400 0 2400 -1800 0 -1800 0 0
-2400z m1948 698 c69 -47 184 -168 226 -236 95 -156 126 -356 76 -486 -16 -42
6 -33 143 59 69 47 136 85 148 85 19 0 21 -4 16 -37 -2 -21 -14 -73 -25 -115
-29 -106 -45 -232 -37 -290 9 -66 69 -182 108 -212 41 -30 141 -86 154 -86 6
0 30 13 54 30 54 36 82 38 107 5 30 -38 48 -151 34 -218 -39 -193 -180 -420
-361 -580 -74 -66 -93 -77 -273 -159 -173 -78 -265 -102 -403 -102 -248 0
-480 104 -676 304 -195 199 -265 319 -350 600 -39 129 -55 162 -113 230 -26
30 -46 59 -46 66 0 48 124 1 272 -102 43 -30 84 -54 92 -54 21 0 42 73 66 223
12 73 28 164 36 202 21 103 115 263 147 252 11 -3 16 -27 32 -139 3 -27 10
-48 15 -48 18 0 70 90 96 166 23 68 26 91 22 169 -4 73 -11 104 -36 164 -41
95 -37 115 24 108 62 -7 176 -77 256 -158 36 -37 69 -65 72 -61 3 3 6 18 6 33
0 15 9 71 21 125 11 55 22 138 23 185 3 79 9 109 22 109 3 0 26 -14 52 -32z"/>
</g>
</svg>
